# xmcd
#
# Track frame offsets:
#	150
#	16124
#	31868
#	41767
#	54214
#	69656
#	89421
#	111164
#	122892
#	142929
#	163145
#
# Disc length: 2345 seconds
#
# Revision: 0
# Processed by: cddbd v1.4PL0 Copyright (c) Steve Scherf et al.
# Submitted via: dBpowerAMP V4.0
#
DISCID=8d09270b
DTITLE=The Isaacs - Songs of the Faith
DYEAR=2003
DGENRE=Gospel
TTITLE0=O Come, Angel Band
TTITLE1=Talk About Suffering
TTITLE2=I'll Live Again
TTITLE3=Blessed Assurance
TTITLE4=Are You Afraid to Die?
TTITLE5=Swing Medley
TTITLE6=How Great Thou Art
TTITLE7=I Have Found the Way
TTITLE8=I Surrender All
TTITLE9=Bluegrass Medley
TTITLE10=Amazing Grace
EXTD=
EXTT0=
EXTT1=
EXTT2=
EXTT3=
EXTT4=
EXTT5=
EXTT6=
EXTT7=
EXTT8=
EXTT9=
EXTT10=
PLAYORDER=
